<?xml version="1.0" standalone="no"?><!DOCTYPE svg PUBLIC "-//W3C//DTD SVG 1.1//EN" "http://www.w3.org/Graphics/SVG/1.1/DTD/svg11.dtd"><svg t="1584178723038" class="icon" viewBox="0 0 1024 1024" version="1.1" xmlns="http://www.w3.org/2000/svg" p-id="2020" xmlns:xlink="http://www.w3.org/1999/xlink" width="200" height="200"><defs><style type="text/css"></style></defs><path d="M935.253333 864.938667c-24.576 43.008-79.872 58.026667-122.88 32.768-43.008-24.576-58.026667-79.872-32.768-122.88 24.576-43.008 79.872-58.026667 122.88-32.768 43.008 24.576 57.344 79.189333 32.768 122.88z m-690.176 0.682666c-24.576 43.008-79.872 58.026667-122.88 32.768s-58.026667-79.872-32.768-122.88c24.576-43.008 79.872-58.026667 122.88-32.768 43.008 24.576 57.344 79.872 32.768 122.88z m360.448-625.322666l-30.037333 51.882666c-24.576 43.008-79.872 58.026667-122.88 32.768-43.008-24.576-58.026667-79.872-32.768-122.88l30.037333-51.882666c24.576-43.008 79.872-58.026667 122.88-32.768 43.008 24.576 58.026667 79.872 32.768 122.88z m178.176 276.48l-150.186666 260.096c-24.576 43.008-79.872 58.026667-122.88 32.768-43.008-24.576-58.026667-79.872-32.768-122.88l150.186666-260.096c24.576-43.008 79.872-58.026667 122.88-32.768 43.008 24.576 58.026667 79.872 32.768 122.88z m-335.189333-19.797334L358.4 653.312c-24.576 43.008-79.872 58.026667-122.88 32.768-43.008-24.576-58.026667-79.872-32.768-122.88l90.112-156.330667c24.576-43.008 79.872-58.026667 122.88-32.768 43.008 24.576 57.344 79.872 32.768 122.88z" fill="#1296db" p-id="2021"></path></svg>